<?xml version="1.0" encoding="UTF-8" standalone="no"?>
<svg width="27px" height="38px" viewBox="0 0 27 38" version="1.1" xmlns="http://www.w3.org/2000/svg" xmlns:xlink="http://www.w3.org/1999/xlink">
    <!-- Generator: Sketch 39.1 (31720) - http://www.bohemiancoding.com/sketch -->
    <title>hourglass</title>
    <desc>Created with Sketch.</desc>
    <defs></defs>
    <g id="Page-1" stroke="none" stroke-width="1" fill="none" fill-rule="evenodd">
        <g id="Group-147" transform="translate(-42.319583, -41.255859)" stroke="#444444" stroke-width="1.86317668">
            <g id="Group-144" transform="translate(41.000000, 40.000000)">
                <g id="hourglass" transform="translate(2.176992, 2.616451)">
                    <path d="M0.239465519,2.92430519 C0.239465519,1.55229977 1.35515109,0.440069619 2.72371695,0.440069619 L22.5975698,0.440069619 C23.969584,0.440069619 25.0818213,1.54322766 25.0818213,2.92541648 L25.0818213,2.92541648 C25.0818213,4.29803564 23.9661357,5.41066352 22.5975698,5.41054108 L2.72371695,5.40876303 C1.35170277,5.40864028 0.239465519,4.30587599 0.239465519,2.92430519 L0.239465519,2.92430519 Z" id="Rectangle" fill="#9FD3FB"></path>
                    <path d="M0.239465519,32.7362434 C0.239465519,31.3648517 1.35518315,30.2529192 2.72378834,30.252674 L22.5982123,30.2491139 C23.9702659,30.2488681 25.0823767,31.351828 25.0821782,32.7340183 L25.0821782,32.7340183 C25.0819811,34.1066388 23.9661357,35.2193677 22.5975698,35.2193677 L2.72371695,35.2193677 C1.35170277,35.2193677 0.239465519,34.1048445 0.239465519,32.7362434 L0.239465519,32.7362434 Z" id="Rectangle" fill="#9FD3FB"></path>
                    <g id="Group-143" transform="translate(3.655289, 4.968471)" fill="#E6F4FE" stroke-linejoin="round">
                        <path d="M17.6984621,0.442292186 C17.6984621,0.310529447 17.7001785,4.502627 17.7001785,5.90005949 C17.7001785,10.5653229 14.594884,12.7317073 14.594884,12.7317073 C14.594884,12.7317073 17.7001785,15.0054089 17.7001785,19.5633551 C17.7001785,22.1919693 17.7001785,25.1528852 17.7001785,25.2846479 L0.310529447,25.2846479 C0.310529447,25.1528852 0.310529447,22.1919693 0.310529447,19.5633551 C0.310529447,15.0054089 3.41582391,12.7317073 3.41582391,12.7317073 C3.41582391,12.7317073 0.310529447,10.5653229 0.310529447,5.90005949 C0.310529447,4.502627 0.310529447,0.310529447 0.310529447,0.442292186 L17.6984621,0.442292186 Z" id="Line" transform="translate(9.005354, 12.861952) scale(-1, 1) translate(-9.005354, -12.861952) "></path>
                    </g>
                    <g id="Group-143" transform="translate(7.381643, 10.814991)" fill="#9FD3FB" stroke-linecap="round" stroke-linejoin="round">
                        <path d="M9.99880136,5.78727624 C9.15840574,3.50471725 6.42716986,0.854152747 5.43352317,0.859015456 C4.25283991,0.864793483 0.311243315,4.59664753 0.311243315,7.01695013 L10.2481856,7.01695013 C10.2481856,6.6335407 10.1569911,6.21692795 9.99880136,5.78727624 Z" id="Line" transform="translate(5.279714, 3.937979) scale(1, -1) translate(-5.279714, -3.937979) "></path>
                        <path d="M5.43352317,13.8938876 C4.25283991,13.8996657 0.311243315,15.768343 0.311243315,18.1886456 L0.311243315,19.4319113 L10.2481856,19.4319113 L10.2481856,18.1886456 C10.2481856,15.768343 6.61420643,13.8881096 5.43352317,13.8938876 Z" id="Line"></path>
                    </g>
                </g>
            </g>
        </g>
    </g>
</svg>